<?xml version="1.0" encoding="utf-8"?>
<!-- Generator: Adobe Illustrator 25.2.1, SVG Export Plug-In . SVG Version: 6.00 Build 0)  -->
<svg version="1.1" id="Layer_1" xmlns="http://www.w3.org/2000/svg" xmlns:xlink="http://www.w3.org/1999/xlink" x="0px" y="0px"
	 viewBox="0 0 36.6 41" style="enable-background:new 0 0 36.6 41;" xml:space="preserve">
<style type="text/css">
	.st0{stroke:#000000;stroke-width:5;stroke-miterlimit:10;}
	.st1{fill:#FFFFFF;}
</style>
<g id="Layer_2_2_">
	<g id="Layer_1-2_1_">
		<g id="ME6ngP_1_">
			<path class="st0" d="M28.8,12.5c-0.8,0.1-1,0.7-1.2,1.4c0.4,0,0.8,0,1.1,0c0.4,0,0.5-0.4,0.7-0.6c0.2-0.3,0.3-0.6,0.4-0.9
				c0.1-0.1,0.1-0.1,0.2-0.3c0.1,0.4,0.2,0.7,0.3,1.1c0.1,0.3,0.1,0.6,0.2,0.9c0,0.1,0,0.1-0.1,0.2c-0.4,0.5-0.8,1.1-1.2,1.6
				c0,0-0.1,0-0.2,0c0,0,0,0-0.1-0.1c-0.2-0.2-0.5-0.4-0.9-0.4c-0.5,0-1.1,0.2-1.5,0.5c-0.1,0.1-0.1,0.2-0.2,0.3c0,0.4,0,0.7,0,1.1
				c0,0.1-0.1,0.2-0.2,0.2c0,0,0,0,0,0c-0.2,0-0.4,0.1-0.6,0.1c-0.2,0-0.3,0.2-0.3,0.3c-0.1,0.4-0.2,0.7-0.4,1.1c0,0.1,0,0.3,0,0.4
				c0.1,0.4,0.2,0.8,0.3,1.1c0,0.1,0.1,0.1,0.1,0.2c0.2,0.1,0.2,0.3,0.1,0.4c0,0.5-0.3,0.9-0.8,1c-0.4,0.2-0.8,0.3-1.2,0.5
				c0,0-0.1,0.1-0.1,0.1c-0.2,0.3-0.5,0.5-0.7,0.8c-0.1,0.1-0.3,0.1-0.4,0.2c-0.5,0-1,0.1-1.4,0.1c-0.2,0-0.4,0-0.6,0.1
				c-0.1,0-0.1,0-0.2,0.1c-0.2,0.2-0.4,0.4-0.5,0.7c-0.1,0.4-0.4,0.6-0.8,0.7c-0.2,0-0.4,0.2-0.4,0.5c0,0,0,0,0,0
				c0,0.1-0.2,0.3-0.3,0.4c-0.5,0.4-0.9,0.9-1.4,1.3l-2.5,2.3l-2.2,2.1c-0.1,0.1-0.2,0.2-0.2,0.3c-0.3,0.3-0.7,0.6-1.1,0.7
				c-0.7,0.3-1.4,0.6-2.1,0.8c0,0-0.1,0-0.2,0.1c0.1-0.1,0.1-0.3,0.2-0.4c0.7-0.9,1.5-1.7,2.2-2.5c0.7-0.8,1.4-1.6,2-2.3
				c0.9-1.1,1.8-2.1,2.8-3.2l2.8-3.2c0.7-0.8,1.3-1.5,2-2.3c0.2-0.2,0.3-0.1,0.5-0.1c0.2,0,0.4,0.1,0.6,0.2c0.1,0,0.2,0,0.3,0
				c0.4-0.2,0.9-0.4,1.3-0.7c0.1,0,0.1-0.1,0.2-0.2c0.2-0.5,0.3-0.9,0.5-1.4c0-0.2-0.2-0.5-0.3-0.7c-0.1-0.2-0.2-0.2-0.2-0.3
				c-0.1-0.6-0.6-0.6-1.1-0.7c-0.1,0-0.3,0-0.4-0.1c-0.3-0.1-0.6,0-0.8,0.2c-0.3,0.2-0.6,0.3-0.9,0.5c-0.1,0.1-0.3,0.2-0.3,0.4
				c-0.2,0.4-0.3,0.7-0.4,1.1c0,0.1,0,0.3,0,0.4c0.2,0.3,0.3,0.7,0.5,1c0.1,0.2,0.1,0.4-0.1,0.5c-0.3,0.3-0.5,0.6-0.8,0.9
				c-0.3,0.3-0.6,0.7-0.9,1s-0.5,0.6-0.7,0.9c0,0.1-0.1,0.2-0.2,0.2l0.6-0.6l0,0l-1,1.2l0,0c0,0,0,0,0.1-0.1
				c-1.3,1.4-2.5,2.9-3.8,4.3c-1.3,1.4-2.5,2.9-3.8,4.3c-1.3,1.4-2.5,2.9-3.8,4.3C4.3,38.2,3,39.6,1.6,41L1.6,41c0-0.1,0-0.2,0-0.3
				c0.1-0.9,0.2-1.8,0.3-2.7s0.4-1.6,0.6-2.4c0-0.2,0.1-0.3,0.2-0.4L7.2,30c0.4-0.4,0.8-0.9,1.1-1.3c0.6-0.7,1.2-1.4,1.8-2
				c0.6-0.7,1.4-1.5,2-2.3c0.9-1,1.7-2,2.5-3.2c0.6-1,1.1-2.1,1.5-3.2c0.3-0.8,0.5-1.7,0.7-2.6c0,0,0-0.1,0.1-0.1
				c0.1-0.1,0.3-0.2,0.5-0.3c0.3-0.3,0.7-0.1,1.1-0.1c0.6,0.1,1.2,0,1.8-0.2c0.3-0.1,0.5-0.2,0.8-0.2c0,0,0.1,0,0.1,0
				c0.2-0.2,0.4-0.5,0.6-0.8c0.3-0.4,0.3-1.1-0.2-1.4c0,0-0.1-0.1-0.1-0.1c-0.2-0.2-0.5-0.4-0.8-0.7c-0.3-0.2-0.1-0.2,0.1-0.2
				c0.4-0.1,0.9-0.3,1.3-0.4c0.3-0.1,0.5-0.3,0.6-0.6c0,0,0-0.1,0-0.2l-0.4-0.7c-0.1-0.1-0.1-0.2,0.1-0.3l1-0.2
				c0.1,0,0.2-0.1,0.2-0.1c0.2-0.2,0.4-0.5,0.6-0.8c0-0.1,0.1-0.2,0.1-0.3l0.1-0.7c0-0.1,0.1-0.2,0.2-0.2c0,0,0.1,0,0.1,0
				c0.2,0,0.4,0,0.6,0c0.1,0,0.3,0,0.4-0.1c0.5-0.4,1.1-0.7,1.7-1c0.1-0.1,0.2-0.1,0.2-0.2c0.2-0.3,0.4-0.6,0.6-0.8l0.1-0.1l0.1,0.2
				c0.1,0.6,0.2,1.3,0.3,1.9c0,0.1,0,0.2-0.2,0.2c-1.7,0.4-3.1,1.7-3.6,3.4c-0.1,0.3-0.1,0.6-0.1,1c0,0.1,0,0.1,0,0.2
				c0.2,0.5,0.4,0.6,0.8,0.3c0.2-0.1,0.3-0.2,0.4-0.4c0,0,0.1-0.1,0.1-0.1c0.2-0.1,0.3-0.4,0.2-0.6c0,0,0,0,0.1-0.1l0.6,0.1
				c0.1,0,0.3,0,0.3-0.1c0.2-0.2,0.4-0.5,0.6-0.7c0.1-0.2,0.2-0.3,0.2-0.5c0-0.1,0.1-0.2,0.2-0.2c0.4-0.1,0.6-0.4,0.8-0.8
				c0.1-0.2,0.2-0.5,0.5-0.5c0,0,0.1-0.1,0.1-0.1c0.3-0.3,0.5-0.6,0.6-0.9c0-0.2,0.2-0.3,0.3-0.3c0.1,0,0.1-0.1,0.2-0.1
				c0.2-0.2,0.3-0.3,0.5-0.5c0.1-0.1,0.1-0.3,0.2-0.4c0.1-0.3,0.3-0.5,0.6-0.7c0.3-0.3,0.5-0.6,0.7-1c0.2-0.6,0.5-1.1,0.8-1.6
				c0.1-0.1,0.2-0.2,0.4-0.3c0.7-0.4,1.4-0.6,2.2-0.6c0.2,0,0.3,0.1,0.4,0.3c0.3,0.7,0.4,1.5,0.1,2.2c0,0.1-0.1,0.2-0.2,0.2
				c-0.6,0.4-1.2,0.9-1.8,1.3c-0.1,0.1-0.3,0.2-0.4,0.2c-0.1,0.1-0.3,0.2-0.3,0.4c-0.1,0.1-0.2,0.3-0.3,0.4
				c-0.1,0.2-0.2,0.3-0.4,0.4c-0.1,0.1-0.2,0.2-0.3,0.3c0,0,0,0-0.1,0.1c-0.3,0.3-0.5,0.6-0.7,0.9c-0.2,0.2-0.2,0.4-0.5,0.5
				c-0.1,0-0.1,0.1-0.1,0.1c-0.2,0.2-0.4,0.5-0.6,0.8c-0.1,0.1-0.2,0.3-0.4,0.4c-0.2,0.2-0.5,0.5-0.7,0.8c-0.2,0.2-0.2,0.5-0.5,0.5
				c-0.1,0-0.1,0-0.1,0.1c-0.2,0.2-0.4,0.5-0.6,0.7c-0.1,0.1-0.1,0.2,0,0.3C28.6,12.2,28.7,12.4,28.8,12.5z"/>
		</g>
	</g>
</g>
<g id="Layer_2_1_">
	<g id="Layer_1-2">
		<g id="ME6ngP">
			<path class="st1" d="M28.8,12.5c-0.8,0.1-1,0.7-1.2,1.4c0.4,0,0.8,0,1.1,0c0.4,0,0.5-0.4,0.7-0.6c0.2-0.3,0.3-0.6,0.4-0.9
				c0.1-0.1,0.1-0.1,0.2-0.3c0.1,0.4,0.2,0.7,0.3,1.1c0.1,0.3,0.1,0.6,0.2,0.9c0,0.1,0,0.1-0.1,0.2c-0.4,0.5-0.8,1.1-1.2,1.6
				c0,0-0.1,0-0.2,0c0,0,0,0-0.1-0.1c-0.2-0.2-0.5-0.4-0.9-0.4c-0.5,0-1.1,0.2-1.5,0.5c-0.1,0.1-0.1,0.2-0.2,0.3c0,0.4,0,0.7,0,1.1
				c0,0.1-0.1,0.2-0.2,0.2c0,0,0,0,0,0c-0.2,0-0.4,0.1-0.6,0.1c-0.2,0-0.3,0.2-0.3,0.3c-0.1,0.4-0.2,0.7-0.4,1.1c0,0.1,0,0.3,0,0.4
				c0.1,0.4,0.2,0.8,0.3,1.1c0,0.1,0.1,0.1,0.1,0.2c0.2,0.1,0.2,0.3,0.1,0.4c0,0.5-0.3,0.9-0.8,1c-0.4,0.2-0.8,0.3-1.2,0.5
				c0,0-0.1,0.1-0.1,0.1c-0.2,0.3-0.5,0.5-0.7,0.8c-0.1,0.1-0.3,0.1-0.4,0.2c-0.5,0-1,0.1-1.4,0.1c-0.2,0-0.4,0-0.6,0.1
				c-0.1,0-0.1,0-0.2,0.1c-0.2,0.2-0.4,0.4-0.5,0.7c-0.1,0.4-0.4,0.6-0.8,0.7c-0.2,0-0.4,0.2-0.4,0.5c0,0,0,0,0,0
				c0,0.1-0.2,0.3-0.3,0.4c-0.5,0.4-0.9,0.9-1.4,1.3l-2.5,2.3l-2.2,2.1c-0.1,0.1-0.2,0.2-0.2,0.3c-0.3,0.3-0.7,0.6-1.1,0.7
				c-0.7,0.3-1.4,0.6-2.1,0.8c0,0-0.1,0-0.2,0.1c0.1-0.1,0.1-0.3,0.2-0.4c0.7-0.9,1.5-1.7,2.2-2.5c0.7-0.8,1.4-1.6,2-2.3
				c0.9-1.1,1.8-2.1,2.8-3.2l2.8-3.2c0.7-0.8,1.3-1.5,2-2.3c0.2-0.2,0.3-0.1,0.5-0.1c0.2,0,0.4,0.1,0.6,0.2c0.1,0,0.2,0,0.3,0
				c0.4-0.2,0.9-0.4,1.3-0.7c0.1,0,0.1-0.1,0.2-0.2c0.2-0.5,0.3-0.9,0.5-1.4c0-0.2-0.2-0.5-0.3-0.7c-0.1-0.2-0.2-0.2-0.2-0.3
				c-0.1-0.6-0.6-0.6-1.1-0.7c-0.1,0-0.3,0-0.4-0.1c-0.3-0.1-0.6,0-0.8,0.2c-0.3,0.2-0.6,0.3-0.9,0.5c-0.1,0.1-0.3,0.2-0.3,0.4
				c-0.2,0.4-0.3,0.7-0.4,1.1c0,0.1,0,0.3,0,0.4c0.2,0.3,0.3,0.7,0.5,1c0.1,0.2,0.1,0.4-0.1,0.5c-0.3,0.3-0.5,0.6-0.8,0.9
				c-0.3,0.3-0.6,0.7-0.9,1s-0.5,0.6-0.7,0.9c0,0.1-0.1,0.2-0.2,0.2l0.6-0.6l0,0l-1,1.2l0,0c0,0,0,0,0.1-0.1
				c-1.3,1.4-2.5,2.9-3.8,4.3c-1.3,1.4-2.5,2.9-3.8,4.3c-1.3,1.4-2.5,2.9-3.8,4.3C4.3,38.2,3,39.6,1.6,41L1.6,41c0-0.1,0-0.2,0-0.3
				c0.1-0.9,0.2-1.8,0.3-2.7s0.4-1.6,0.6-2.4c0-0.2,0.1-0.3,0.2-0.4L7.2,30c0.4-0.4,0.8-0.9,1.1-1.3c0.6-0.7,1.2-1.4,1.8-2
				c0.6-0.7,1.4-1.5,2-2.3c0.9-1,1.7-2,2.5-3.2c0.6-1,1.1-2.1,1.5-3.2c0.3-0.8,0.5-1.7,0.7-2.6c0,0,0-0.1,0.1-0.1
				c0.1-0.1,0.3-0.2,0.5-0.3c0.3-0.3,0.7-0.1,1.1-0.1c0.6,0.1,1.2,0,1.8-0.2c0.3-0.1,0.5-0.2,0.8-0.2c0,0,0.1,0,0.1,0
				c0.2-0.2,0.4-0.5,0.6-0.8c0.3-0.4,0.3-1.1-0.2-1.4c0,0-0.1-0.1-0.1-0.1c-0.2-0.2-0.5-0.4-0.8-0.7c-0.3-0.2-0.1-0.2,0.1-0.2
				c0.4-0.1,0.9-0.3,1.3-0.4c0.3-0.1,0.5-0.3,0.6-0.6c0,0,0-0.1,0-0.2l-0.4-0.7c-0.1-0.1-0.1-0.2,0.1-0.3l1-0.2
				c0.1,0,0.2-0.1,0.2-0.1c0.2-0.2,0.4-0.5,0.6-0.8c0-0.1,0.1-0.2,0.1-0.3l0.1-0.7c0-0.1,0.1-0.2,0.2-0.2c0,0,0.1,0,0.1,0
				c0.2,0,0.4,0,0.6,0c0.1,0,0.3,0,0.4-0.1c0.5-0.4,1.1-0.7,1.7-1c0.1-0.1,0.2-0.1,0.2-0.2c0.2-0.3,0.4-0.6,0.6-0.8l0.1-0.1l0.1,0.2
				c0.1,0.6,0.2,1.3,0.3,1.9c0,0.1,0,0.2-0.2,0.2c-1.7,0.4-3.1,1.7-3.6,3.4c-0.1,0.3-0.1,0.6-0.1,1c0,0.1,0,0.1,0,0.2
				c0.2,0.5,0.4,0.6,0.8,0.3c0.2-0.1,0.3-0.2,0.4-0.4c0,0,0.1-0.1,0.1-0.1c0.2-0.1,0.3-0.4,0.2-0.6c0,0,0,0,0.1-0.1l0.6,0.1
				c0.1,0,0.3,0,0.3-0.1c0.2-0.2,0.4-0.5,0.6-0.7c0.1-0.2,0.2-0.3,0.2-0.5c0-0.1,0.1-0.2,0.2-0.2c0.4-0.1,0.6-0.4,0.8-0.8
				c0.1-0.2,0.2-0.5,0.5-0.5c0,0,0.1-0.1,0.1-0.1c0.3-0.3,0.5-0.6,0.6-0.9c0-0.2,0.2-0.3,0.3-0.3c0.1,0,0.1-0.1,0.2-0.1
				c0.2-0.2,0.3-0.3,0.5-0.5c0.1-0.1,0.1-0.3,0.2-0.4c0.1-0.3,0.3-0.5,0.6-0.7c0.3-0.3,0.5-0.6,0.7-1c0.2-0.6,0.5-1.1,0.8-1.6
				c0.1-0.1,0.2-0.2,0.4-0.3c0.7-0.4,1.4-0.6,2.2-0.6c0.2,0,0.3,0.1,0.4,0.3c0.3,0.7,0.4,1.5,0.1,2.2c0,0.1-0.1,0.2-0.2,0.2
				c-0.6,0.4-1.2,0.9-1.8,1.3c-0.1,0.1-0.3,0.2-0.4,0.2c-0.1,0.1-0.3,0.2-0.3,0.4c-0.1,0.1-0.2,0.3-0.3,0.4
				c-0.1,0.2-0.2,0.3-0.4,0.4c-0.1,0.1-0.2,0.2-0.3,0.3c0,0,0,0-0.1,0.1c-0.3,0.3-0.5,0.6-0.7,0.9c-0.2,0.2-0.2,0.4-0.5,0.5
				c-0.1,0-0.1,0.1-0.1,0.1c-0.2,0.2-0.4,0.5-0.6,0.8c-0.1,0.1-0.2,0.3-0.4,0.4c-0.2,0.2-0.5,0.5-0.7,0.8c-0.2,0.2-0.2,0.5-0.5,0.5
				c-0.1,0-0.1,0-0.1,0.1c-0.2,0.2-0.4,0.5-0.6,0.7c-0.1,0.1-0.1,0.2,0,0.3C28.6,12.2,28.7,12.4,28.8,12.5z"/>
		</g>
	</g>
</g>
</svg>
