<svg id="Layer_1" data-name="Layer 1" xmlns="http://www.w3.org/2000/svg" viewBox="0 0 233.91 55.21"><defs><style>.cls-1,.cls-2{fill:#fff;}.cls-2{stroke:#000;stroke-miterlimit:10;stroke-width:0.25px;}</style></defs><path class="cls-1" d="M35.61,55.8A21.71,21.71,0,0,1,19,48.38a25.87,25.87,0,0,1-6.74-18c0-7,2.06-13.09,6.11-17.93A19.79,19.79,0,0,1,34.2,5a44.35,44.35,0,0,1,14.92,2.7l.89.32-1.34,4.53-1-.32A43.36,43.36,0,0,0,34.2,9.93a14.66,14.66,0,0,0-12.06,5.83,22.66,22.66,0,0,0-4.76,14.59A21.13,21.13,0,0,0,22.77,45a16.67,16.67,0,0,0,13,5.94,27.79,27.79,0,0,0,10.58-1.77V29.38h4.88V51.77l-.43.29C47.15,54.55,42.05,55.8,35.61,55.8Z" transform="translate(-11.76 -1.09)"/><path d="M35.61,56.3a22.22,22.22,0,0,1-17-7.58,26.35,26.35,0,0,1-6.87-18.37A27.62,27.62,0,0,1,18,12.1,20.29,20.29,0,0,1,34.2,4.53,44.81,44.81,0,0,1,49.29,7.26l1.33.47L49,13.22l-1.47-.49a42.87,42.87,0,0,0-13.33-2.3,14.18,14.18,0,0,0-11.67,5.65,22.18,22.18,0,0,0-4.65,14.27,20.67,20.67,0,0,0,5.26,14.28A16.22,16.22,0,0,0,35.76,50.4a27.85,27.85,0,0,0,10.08-1.61V28.88h5.88V52l-.65.45C47.35,55,42.15,56.3,35.61,56.3ZM34.2,5.53a19.3,19.3,0,0,0-15.44,7.21c-4,4.75-6,10.68-6,17.61A25.4,25.4,0,0,0,19.37,48,21.23,21.23,0,0,0,35.61,55.3c6.33,0,11.35-1.23,14.89-3.65l.22-.15V29.88H46.84V49.47l-.31.12A28.35,28.35,0,0,1,35.76,51.4a17.18,17.18,0,0,1-13.37-6.11,21.65,21.65,0,0,1-5.51-14.94,23.17,23.17,0,0,1,4.87-14.9,15.12,15.12,0,0,1,12.45-6,43.74,43.74,0,0,1,13.65,2.35l.48.17L49.4,8.36,49,8.2A43.8,43.8,0,0,0,34.2,5.53Z" transform="translate(-11.76 -1.09)"/><path class="cls-1" d="M81.42,55.8C75.48,55.8,71,53.85,68,50s-4.38-9-4.38-15.39V5.82H68.5V34.61c0,11,4.22,16.42,12.89,16.42s12.89-5.37,12.89-16.42V5.82h4.88V34.61c0,6.49-1.46,11.68-4.35,15.42S87.36,55.8,81.42,55.8Z" transform="translate(-11.76 -1.09)"/><path d="M81.42,56.3c-6.1,0-10.75-2-13.82-6s-4.48-9.14-4.48-15.7V5.32H69V34.61c0,10.71,4,15.92,12.39,15.92s12.39-5.21,12.39-15.92V5.32h5.88V34.61c0,6.6-1.5,11.89-4.45,15.73S87.53,56.3,81.42,56.3Zm-17.3-50V34.61c0,6.33,1.44,11.41,4.28,15.09s7.24,5.6,13,5.6,10.15-1.87,13-5.57S98.66,41,98.66,34.61V6.32H94.78V34.61c0,11.39-4.38,16.92-13.39,16.92S68,46,68,34.61V6.32Z" transform="translate(-11.76 -1.09)"/><polygon class="cls-1" points="122.36 53.92 122.36 4.73 127.24 4.73 127.24 49.01 146.98 49.01 146.98 53.92 122.36 53.92"/><path d="M159.24,55.51H133.62V5.32h5.88V49.61h19.74Zm-24.62-1h23.62v-3.9H138.5V6.32h-3.88Z" transform="translate(-11.76 -1.09)"/><path class="cls-1" d="M180.72,55.61c-4.05,0-8.7-.25-13.84-.73l-.9-.09V5.89l.92-.07c4.1-.3,8.28-.46,12.44-.46a23.37,23.37,0,0,1,17.27,7.06c4.61,4.69,6.95,11.11,6.95,19.09a30.31,30.31,0,0,1-1.78,10.74,19.22,19.22,0,0,1-5,7.62A23.47,23.47,0,0,1,180.72,55.61Zm-9.86-5.32a95.07,95.07,0,0,0,9.86.41c5.34,0,9.68-1.6,12.89-4.76s4.83-8,4.83-14.5S196.58,19.76,192.93,16a18.22,18.22,0,0,0-13.59-5.7c-3.19,0-6,.09-8.48.26Z" transform="translate(-11.76 -1.09)"/><path d="M180.72,56.11c-4.06,0-8.73-.25-13.88-.74l-1.36-.13V5.43l1.39-.1c4.1-.31,8.3-.47,12.47-.47A23.88,23.88,0,0,1,197,12.07c4.7,4.78,7.09,11.32,7.09,19.44a30.83,30.83,0,0,1-1.81,10.92,19.73,19.73,0,0,1-5.11,7.81A24,24,0,0,1,180.72,56.11Zm-14.24-1.78.45.05c5.12.48,9.76.73,13.79.73a23,23,0,0,0,15.76-5.61,19,19,0,0,0,4.84-7.42,30.07,30.07,0,0,0,1.74-10.57c0-7.85-2.29-14.15-6.81-18.74a22.88,22.88,0,0,0-16.91-6.91c-4.15,0-8.32.16-12.4.46l-.46,0Zm14.24-3.13a96.36,96.36,0,0,1-9.92-.41l-.44,0V10.05l.46,0c2.46-.17,5.33-.26,8.52-.26a18.68,18.68,0,0,1,13.95,5.86c3.75,3.89,5.65,9.21,5.65,15.82S197.26,43,194,46.3,186.2,51.2,180.72,51.2Zm-9.36-1.36c2.4.24,5.54.36,9.36.36,5.2,0,9.42-1.55,12.54-4.62s4.68-7.81,4.68-14.14S196.13,20,192.57,16.31a17.73,17.73,0,0,0-13.23-5.55c-3,0-5.65.08-8,.23Z" transform="translate(-11.76 -1.09)"/><path class="cls-1" d="M223.1,55V37.37L206.29,5.82H212L224.8,30.25c.32.62.61,1.2.88,1.74.22-.44.49-1,.84-1.61L239.27,5.82h5.57L228,37.5V55Z" transform="translate(-11.76 -1.09)"/><path d="M228.48,55.51H222.6v-18L205.46,5.32h6.89L225.25,30l.43.86.39-.74L239,5.32h6.71l-17.2,32.3Zm-4.88-1h3.88V37.37L244,6.32h-4.44L227,30.61c-.34.64-.61,1.17-.83,1.61l-.46.9-.44-.91c-.27-.54-.55-1.11-.87-1.73L211.74,6.32h-4.62L223.6,37.24Z" transform="translate(-11.76 -1.09)"/><g id="Layer_2" data-name="Layer 2"><g id="Layer_1-2" data-name="Layer 1-2"><g id="ME6ngP"><path d="M116.4,55.75a1.46,1.46,0,0,1-.68-.17,3.83,3.83,0,0,1-2-2.13,1.45,1.45,0,0,1,0-.92c.15-.71.32-1.41.5-2.12a2.69,2.69,0,0,1,.14-.46l0-.12a3.54,3.54,0,0,1,0-.65c0-.21,0-.41,0-.61a3.7,3.7,0,0,1,.06-.48,10,10,0,0,0,0-1V47a1.51,1.51,0,0,1,0-.95,2.5,2.5,0,0,0-.06-.67l0-.11v-.68a5.6,5.6,0,0,0,0-.57l-.86-.61-.25-.17c-.26-.17-.48-.33-.7-.5l-.13-.09-.66-.51a1.27,1.27,0,0,1-.44-.88c-.07-.63-.13-1.28-.19-2l0-.36.19-.28a2.56,2.56,0,0,1,.26-.32l.14-.15L112,38h.44l.08,0a1.19,1.19,0,0,0,.37-.54l-.46-.54a1.2,1.2,0,0,1,0-1.63l.12-.18c-.11-.25-.22-.51-.34-.76-.15-.07-.35-.19-.56-.31l-.26-.17a1.46,1.46,0,0,1-1-.64,2.05,2.05,0,0,1-.1-2.41c.16-.28.3-.58.44-.89V28.65a1.77,1.77,0,0,1,.52-.93c.15-.17.35-.37.55-.56l.42-.41.25-.25a.37.37,0,0,0,0-.15,1.86,1.86,0,0,1,.11-1.77,1.52,1.52,0,0,1,0-1c0-.59.12-1.17.18-1.76l.34-3.47.3-3V15.1a4,4,0,0,1,.48-1.73l.47-1c.13-.27.27-.54.41-.81v-.09l.24-.36.29-.52V7.84c0-1.91,0-3.86.15-5.8l0-.95h1.28l.35.21a2,2,0,0,1,.41.41c.24.36.45.65.66.94.32.45.64.89.93,1.37s.57,1,.8,1.52c.11.23.23.46.35.7a2,2,0,0,1,.21,1V18.46c0,.3,0,.62,0,1,0,.7,0,1.43,0,2.11a23.72,23.72,0,0,0,.22,3.9,15.4,15.4,0,0,0,.88,3.17,10.46,10.46,0,0,0,1.13,2.21l0,.06,0,.06a1.17,1.17,0,0,1,0,.9,2.77,2.77,0,0,1-.1.26,1.21,1.21,0,0,0-.05.14,1.92,1.92,0,0,1-1,1.28l-.15.1a2.27,2.27,0,0,0-.91.94,7.36,7.36,0,0,1-.4.62,3.15,3.15,0,0,0,0,.53v.11l.11,0h1.11a1.12,1.12,0,0,1,1.1.59,1,1,0,0,1-.12,1.14l-.14.23c-.12.21-.24.41-.37.61h0a1.08,1.08,0,0,1,.8.61,1.19,1.19,0,0,1-.16,1.25l-.48.64a4.26,4.26,0,0,0,0,.51l.34.48a1.22,1.22,0,0,1-.06,1.65l-.12.13-.1,0a2.61,2.61,0,0,0-.31.27,8.91,8.91,0,0,1-.59,1.71v.07a3.57,3.57,0,0,0,.07.61l.06.31v2l-1.73-1-1.17-.95a1.34,1.34,0,0,1-.19.77,2.8,2.8,0,0,0,0,.41l.07.17,0,.08a3,3,0,0,1,0,1.31,1.84,1.84,0,0,0,.08.7A16.89,16.89,0,0,1,119,52a2,2,0,0,1-.14,1.08,5.67,5.67,0,0,1-1.43,2.24A1.42,1.42,0,0,1,116.4,55.75Zm1.78-13.19c0,.11.07.22.11.33a1.55,1.55,0,0,1,0,.93l0,.08,0,.08a.41.41,0,0,0,0,.24,3.89,3.89,0,0,0,.36-2.3l-.37.23Zm-2.3-9.19a1.17,1.17,0,0,1,.45.14l.08,0,.22-.11a2.58,2.58,0,0,1,.32-.18l0-.1c0-.17.11-.35.18-.53a2.24,2.24,0,0,0,.14-.39c-.08-.21-.19-.48-.32-.74-.19-.09-.4-.17-.61-.25a1.56,1.56,0,0,1-.25.17l-.36.16-.14.06c-.11.26-.23.58-.35.89a7.58,7.58,0,0,0,.36.84Z" transform="translate(-11.76 -1.09)"/></g></g></g><g id="Layer_2-2" data-name="Layer 2"><g id="Layer_1-2-2" data-name="Layer 1-2"><g id="ME6ngP-2" data-name="ME6ngP"><path class="cls-2" d="M114.68,41.42c.56-.61.33-1.18,0-1.82-.31.28-.6.51-.85.77s-.14.63-.1,1,.16.62.23.93a.71.71,0,0,0,.06.31c-.35-.24-.64-.43-.92-.64s-.5-.37-.74-.57a.21.21,0,0,1-.09-.18c-.07-.66-.13-1.31-.19-2a1.54,1.54,0,0,1,.13-.17h.08a1.17,1.17,0,0,0,.89-.28,2.2,2.2,0,0,0,.76-1.36.58.58,0,0,0-.09-.34c-.21-.29-.44-.56-.67-.83a.19.19,0,0,1,0-.28l0,0c.12-.15.21-.33.33-.48a.42.42,0,0,0,0-.47c-.15-.36-.3-.72-.47-1.07a1,1,0,0,0-.29-.33c-.33-.22-.68-.42-1-.62a.65.65,0,0,0-.22-.08.44.44,0,0,1-.39-.24,1.05,1.05,0,0,1-.06-1.3c.21-.39.4-.79.58-1.21a.6.6,0,0,0,0-.19V28.84a.73.73,0,0,1,.22-.4c.33-.35.68-.67,1-1,.15-.15.31-.3.45-.46a.37.37,0,0,0,.08-.19,1.81,1.81,0,0,0-.1-.83.85.85,0,0,1,.14-1,.44.44,0,0,0,0-.63l0,0a.6.6,0,0,1,0-.51c.06-.65.13-1.29.2-1.94l.33-3.39.3-3V15.1a2.82,2.82,0,0,1,.36-1.26c.34-.65.65-1.33,1-2,0-.05.06-.09.12-.2,0,.15.09.3.13.45v18c0,.23-.16.3-.31.38s-.41.17-.61.28a.63.63,0,0,0-.23.23c-.19.44-.36.89-.53,1.33a.45.45,0,0,0,0,.28,8.57,8.57,0,0,0,.6,1.39c.11.18.44.24.68.35s.24,0,.33.09c.48.35.85,0,1.25-.18a3.07,3.07,0,0,1,.36-.2.88.88,0,0,0,.46-.67c.09-.31.24-.61.33-.93a.85.85,0,0,0,0-.5,11.55,11.55,0,0,0-.45-1.1.65.65,0,0,0-.26-.26c-.34-.15-.68-.28-1-.4a.33.33,0,0,1-.25-.4V27.14a7.33,7.33,0,0,0-.06-1.18.54.54,0,0,1,0-.31v.85h0L116.22,25h0V7.84c0-1.91,0-3.82.15-5.75h.08l.22.22c.52.78,1.06,1.46,1.53,2.23s.74,1.43,1.12,2.16a1.27,1.27,0,0,1,.1.46v11.3c0,.91,0,2.07,0,3.11a23.23,23.23,0,0,0,.23,4,15.31,15.31,0,0,0,.94,3.4,10.17,10.17,0,0,0,1.22,2.39.28.28,0,0,1,0,.13c0,.17-.14.34-.18.51-.08.44-.48.58-.78.8a3.2,3.2,0,0,0-1.21,1.29,4.55,4.55,0,0,1-.46.66.18.18,0,0,0-.05.11,5.71,5.71,0,0,0,.06,1,1,1,0,0,0,1,1l.16,0h1c.34,0,.21.07.12.22-.24.4-.47.8-.73,1.18a.76.76,0,0,0-.05.78,1,1,0,0,0,.16.12l.76.25c.13,0,.19.13.08.27l-.6.79a.52.52,0,0,0-.1.26,6.84,6.84,0,0,0,0,1,.55.55,0,0,0,.12.24l.42.58a.24.24,0,0,1,0,.33l-.06,0a4,4,0,0,0-.49.42.78.78,0,0,0-.21.33,8.38,8.38,0,0,1-.65,1.84.39.39,0,0,0,0,.3,6.2,6.2,0,0,0,.13,1v.19l-.15-.09-1.5-1.22c-.11-.09-.11-.17,0-.29a4.93,4.93,0,0,0,.43-4.93,5.4,5.4,0,0,0-.52-.82.34.34,0,0,0-.12-.12c-.46-.25-.68-.22-.84.28a.66.66,0,0,0,0,.58v.14a.5.5,0,0,0,.22.62v.1l-.51.32a.3.3,0,0,0-.17.3v.9a3.24,3.24,0,0,0,.16.53.48.48,0,0,1,0,.29,1.32,1.32,0,0,0-.08,1.1c.06.24.21.49,0,.72v.17a2.37,2.37,0,0,0,.15,1.12.38.38,0,0,1-.08.42.31.31,0,0,0-.07.2,4.21,4.21,0,0,0,0,.71,1.06,1.06,0,0,0,.12.43,2,2,0,0,1,0,.91,2.84,2.84,0,0,0,.12,1.16c.18.59.34,1.18.46,1.78a1,1,0,0,1-.07.48,4.83,4.83,0,0,1-1.21,1.92.4.4,0,0,1-.48.07,2.8,2.8,0,0,1-1.54-1.61.42.42,0,0,1,0-.31c.15-.71.32-1.42.5-2.13a2.06,2.06,0,0,1,.15-.46.79.79,0,0,0,0-.48,1.46,1.46,0,0,1,0-.51,5.61,5.61,0,0,1,0-.58,1.53,1.53,0,0,1,.07-.41v-.09a10.88,10.88,0,0,0-.06-1.14c0-.23-.15-.46,0-.68a.25.25,0,0,0,0-.17,3.76,3.76,0,0,0-.08-1v-.56a8.34,8.34,0,0,0,0-1c0-.24-.15-.47,0-.7a.38.38,0,0,0,0-.16v-.89c0-.13,0-.2-.18-.22A4.09,4.09,0,0,1,114.68,41.42Z" transform="translate(-11.76 -1.09)"/></g></g></g></svg>