<svg viewBox="0 0 232.58 53.71" xmlns="http://www.w3.org/2000/svg"><g fill="#fff"><path d="m23.35 53.71a21.75 21.75 0 0 1 -16.61-7.42 25.9 25.9 0 0 1 -6.74-18.03 27.16 27.16 0 0 1 6.11-17.94 19.8 19.8 0 0 1 15.83-7.38 44.33 44.33 0 0 1 14.92 2.69l.89.32-1.34 4.54-1-.33a43.34 43.34 0 0 0 -13.47-2.32 14.65 14.65 0 0 0 -12.06 5.83 22.64 22.64 0 0 0 -4.76 14.59 21.16 21.16 0 0 0 5.38 14.61 16.73 16.73 0 0 0 13 5.94 28 28 0 0 0 10.58-1.81v-19.71h4.92v22.38l-.44.3c-3.67 2.48-8.77 3.74-15.21 3.74z"/><path d="m69.16 53.71c-5.94 0-10.46-2-13.42-5.8s-4.38-8.91-4.38-15.4v-28.78h4.88v28.78c0 11.06 4.22 16.43 12.89 16.43s12.87-5.37 12.87-16.43v-28.78h4.9v28.78c0 6.49-1.46 11.68-4.35 15.43s-7.45 5.77-13.39 5.77z"/><path d="m121.86 52.92v-49.19h4.88v44.28h19.74v4.91z"/><path d="m168.46 53.51c-4.05 0-8.7-.24-13.84-.73l-.9-.08v-48.9l.92-.07c4.1-.31 8.28-.46 12.44-.46a23.35 23.35 0 0 1 17.27 7.06c4.61 4.68 7 11.1 7 19.08a30.32 30.32 0 0 1 -1.78 10.75 19.29 19.29 0 0 1 -5 7.62 23.52 23.52 0 0 1 -16.11 5.73zm-9.86-5.32a91.92 91.92 0 0 0 9.86.42c5.34 0 9.67-1.61 12.89-4.76s4.83-8 4.83-14.5-1.86-11.69-5.51-15.48a18.22 18.22 0 0 0 -13.59-5.7c-3.19 0-6 .09-8.48.26z"/><path d="m210.84 52.92v-17.65l-16.84-31.54h5.75l12.76 24.43c.32.62.61 1.2.88 1.74.22-.44.49-1 .83-1.62l12.78-24.55h5.57l-16.85 31.67v17.52z"/><path d="m102.41 39.33c.56-.61.33-1.18 0-1.82-.31.28-.6.51-.85.77s-.14.63-.1.95.16.62.23.93a.71.71 0 0 0 .06.31c-.35-.24-.64-.43-.92-.64s-.5-.37-.74-.57a.31.31 0 0 1 -.09-.18c-.07-.66-.13-1.31-.19-2a1.54 1.54 0 0 1 .13-.17h.06a1.18 1.18 0 0 0 .89-.28 2.22 2.22 0 0 0 .76-1.36.52.52 0 0 0 -.09-.34c-.21-.29-.44-.56-.67-.83a.19.19 0 0 1 0-.28c.12-.15.21-.33.33-.48a.39.39 0 0 0 .05-.47c-.15-.36-.3-.72-.47-1.07a.77.77 0 0 0 -.29-.33c-.33-.22-.68-.42-1-.62a.35.35 0 0 0 -.22-.08.44.44 0 0 1 -.39-.24 1.08 1.08 0 0 1 -.06-1.3 11.18 11.18 0 0 0 .6-1.23.61.61 0 0 0 0-.19v-1.06a.79.79 0 0 1 .22-.4c.33-.35.68-.67 1-1 .15-.15.31-.3.45-.46a.27.27 0 0 0 .08-.19 1.67 1.67 0 0 0 -.1-.83.88.88 0 0 1 .14-1 .46.46 0 0 0 0-.64.6.6 0 0 1 0-.51c.06-.65.13-1.29.2-1.94l.33-3.39.3-3v-.39a3.1 3.1 0 0 1 .36-1.26c.34-.65.65-1.33 1-2 0-.05.06-.09.12-.2a2.54 2.54 0 0 1 .13.45v18.01c0 .23-.16.3-.31.38s-.41.17-.61.28a.63.63 0 0 0 -.23.23c-.19.44-.36.89-.53 1.33a.45.45 0 0 0 0 .28 11.42 11.42 0 0 0 .6 1.39c.11.18.44.24.68.35s.24 0 .33.09c.48.35.85 0 1.25-.18l.36-.2a.87.87 0 0 0 .46-.67c.09-.31.24-.61.33-.93a.85.85 0 0 0 0-.5 7.47 7.47 0 0 0 -.45-1.1.55.55 0 0 0 -.26-.26c-.34-.15-.68-.28-1-.4a.35.35 0 0 1 -.25-.4v-2.64a7.33 7.33 0 0 0 -.06-1.18.81.81 0 0 1 0-.31v.85l.02-1.55v-17.11c0-1.91 0-3.82.15-5.75h.08a.92.92 0 0 1 .22.22c.52.78 1.06 1.46 1.53 2.23s.74 1.43 1.12 2.16a.91.91 0 0 1 .1.46v11.3c0 .91-.05 2.07 0 3.11a24.28 24.28 0 0 0 .23 4 16.82 16.82 0 0 0 .94 3.4 11.22 11.22 0 0 0 1.22 2.39.15.15 0 0 1 0 .13c-.05.17-.14.34-.18.51-.08.44-.48.58-.78.8a3.27 3.27 0 0 0 -1.26 1.29 3.72 3.72 0 0 1 -.46.66.37.37 0 0 0 0 .11 5.71 5.71 0 0 0 .06 1 1 1 0 0 0 1.06.94h.15 1c.34 0 .21.07.12.22-.24.4-.47.8-.73 1.18a.8.8 0 0 0 0 .78 1 1 0 0 0 .16.12l.76.25c.13 0 .19.13.08.27l-.6.79a.64.64 0 0 0 -.1.26 6.84 6.84 0 0 0 0 1 .68.68 0 0 0 .12.24l.42.58a.25.25 0 0 1 0 .33h-.07a6.4 6.4 0 0 0 -.49.42.81.81 0 0 0 -.21.33 7.89 7.89 0 0 1 -.65 1.84.51.51 0 0 0 0 .3 6.2 6.2 0 0 0 .13 1v.19l-.15-.09-1.5-1.22c-.11-.09-.11-.17 0-.29a4.88 4.88 0 0 0 .43-4.93 3.92 3.92 0 0 0 -.52-.82.28.28 0 0 0 -.12-.12c-.46-.25-.68-.22-.84.28a.66.66 0 0 0 0 .58v.14a.53.53 0 0 0 .22.62v.1l-.51.32a.31.31 0 0 0 -.17.3v.9c0 .18.1.36.16.53a.48.48 0 0 1 0 .29 1.36 1.36 0 0 0 -.08 1.1c.06.24.21.49 0 .72v.17a2.67 2.67 0 0 0 .15 1.12.35.35 0 0 1 -.08.42.48.48 0 0 0 -.07.2v.71a1.62 1.62 0 0 0 .12.43 1.76 1.76 0 0 1 0 .91 2.84 2.84 0 0 0 .12 1.16 13.68 13.68 0 0 1 .46 1.78.88.88 0 0 1 -.07.48 4.62 4.62 0 0 1 -1.21 1.92.39.39 0 0 1 -.48.07 2.9 2.9 0 0 1 -1.58-1.59.55.55 0 0 1 0-.31c.15-.71.32-1.42.5-2.13a3.53 3.53 0 0 1 .15-.46.66.66 0 0 0 0-.48 2.17 2.17 0 0 1 0-.51 5.61 5.61 0 0 1 0-.58 2.7 2.7 0 0 1 .07-.41v-.12a10.88 10.88 0 0 0 -.06-1.14c0-.23-.15-.46 0-.68a.25.25 0 0 0 0-.17 3.06 3.06 0 0 0 -.08-1v-.56a5.57 5.57 0 0 0 0-1c0-.24-.15-.47 0-.7a.3.3 0 0 0 0-.16v-.89c0-.13 0-.2-.18-.22a4.84 4.84 0 0 1 -.39-.15z"/></g></svg>